<?xml version="1.0" encoding="utf-8"?>
<!-- Generator: Adobe Illustrator 17.0.0, SVG Export Plug-In . SVG Version: 6.00 Build 0)  -->
<!DOCTYPE svg PUBLIC "-//W3C//DTD SVG 1.1//EN" "http://www.w3.org/Graphics/SVG/1.1/DTD/svg11.dtd">
<svg version="1.1" id="Layer_1" xmlns="http://www.w3.org/2000/svg" xmlns:xlink="http://www.w3.org/1999/xlink" x="0px" y="0px"
	 width="472.695px" height="153.705px" viewBox="0 0 472.695 153.705" enable-background="new 0 0 472.695 153.705"
	 xml:space="preserve">
<g>
	<path fill="#070707" d="M309.095,72.88c6.373,0.001,12.749-0.08,19.12,0.046c2.151,0.042,2.77-0.661,2.735-2.77
		c-0.116-6.996-0.011-13.996-0.059-20.994c-0.047-6.926-1.752-8.772-8.667-9.555c-0.991-0.112-1.993-0.168-2.991-0.18
		c-1.391-0.017-1.593-0.863-1.564-1.997c0.033-1.292,0.909-1.288,1.814-1.29c1.625-0.003,3.249-0.003,4.874-0.003
		c10.997,0,21.995-0.026,32.992,0.039c1.136,0.007,3.01-0.886,3.079,1.489c0.066,2.258-1.724,1.685-2.958,1.808
		c-7.807,0.777-10.119,2.697-10.239,10.452c-0.263,16.99-0.249,33.989-0.02,50.981c0.104,7.669,2.568,9.836,10.132,10.638
		c1.194,0.127,3.044-0.656,3.073,1.618c0.03,2.449-1.938,1.457-3.03,1.463c-12.371,0.072-24.744,0.056-37.116,0.022
		c-1.081-0.003-2.674,0.66-2.608-1.541c0.053-1.76,1.297-1.485,2.368-1.572c0.498-0.04,1.001-0.026,1.497-0.078
		c7.754-0.818,9.361-2.606,9.38-10.494c0.016-6.623-0.09-13.249,0.052-19.869c0.049-2.297-0.618-2.98-2.943-2.96
		c-12.621,0.109-25.244,0.096-37.865,0.008c-2.136-0.015-2.785,0.647-2.75,2.761c0.112,6.746,0.022,13.496,0.043,20.244
		c0.024,7.63,1.666,9.456,9.184,10.292c0.62,0.069,1.247,0.074,1.871,0.094c1.167,0.038,2.262,0.046,2.202,1.75
		c-0.067,1.901-1.447,1.366-2.425,1.37c-8.498,0.035-16.996,0.02-25.494,0.018c-4.124-0.001-8.248,0.026-12.371-0.035
		c-0.967-0.014-2.395,0.611-2.496-1.286c-0.107-1.994,1.344-1.71,2.545-1.822c0.746-0.069,1.5-0.087,2.235-0.218
		c5.999-1.066,7.64-2.645,8.318-8.728c0.358-3.215,0.264-6.486,0.27-9.732c0.025-13.247,0.014-26.494,0.004-39.74
		c-0.001-1.373-0.001-2.755-0.148-4.117c-0.735-6.807-2.814-8.815-9.689-9.457c-0.373-0.035-0.747-0.097-1.119-0.09
		c-1.371,0.028-2.543-0.129-2.413-1.969c0.129-1.833,1.527-1.329,2.525-1.332c10.872-0.028,21.744-0.011,32.617-0.006
		c1.75,0.001,3.5-0.031,5.248,0.013c1.041,0.026,2.345-0.379,2.392,1.462c0.041,1.6-0.885,1.7-2.132,1.859
		c-10.611,1.359-11.116,1.947-11.126,12.52c-0.006,6.123,0.087,12.248-0.026,18.37c-0.037,1.998,0.613,2.585,2.561,2.555
		C296.347,72.819,302.721,72.879,309.095,72.88z"/>
	<path fill="#050505" d="M205.407,116.163c-19.705,0.174-32.724-3.513-43.221-13.896c-15.386-15.218-14.465-41.224,1.864-55.406
		c11.564-10.043,25.342-12.788,40.115-12.111c12.727,0.583,24.293,4.292,33.618,13.391c17.232,16.813,14.909,44.886-4.797,58.765
		C223.776,113.393,213.96,116.158,205.407,116.163z M169.285,74.92c-0.089,4.532,0.454,8.988,1.57,13.357
		c3.611,14.134,14.274,22.5,29.053,22.868c13.769,0.343,25.049-7.461,29.129-20.748c3.107-10.117,3.154-20.423-0.316-30.526
		c-6.636-19.322-30.836-26.673-46.999-14.169C172.237,53.041,169.597,63.55,169.285,74.92z"/>
	<path fill="#080808" d="M451.683,90.501c-0.235-13.851,0.455-27.711-0.451-41.551c-0.437-6.683-2.834-8.837-9.663-9.451
		c-0.622-0.056-1.249-0.051-1.869-0.115c-1.032-0.106-1.545-0.687-1.538-1.739c0.007-1.097,0.546-1.532,1.631-1.53
		c10.373,0.021,20.747,0.023,31.12,0.015c0.984-0.001,1.723,0.179,1.778,1.367c0.057,1.232-0.515,1.683-1.721,1.935
		c-10.847,2.268-11.38,2.702-11.496,13.461c-0.215,19.99-0.179,39.982-0.308,59.973c-0.008,1.253,0.823,2.995-0.809,3.7
		c-1.6,0.691-2.739-0.555-3.84-1.647c-17.033-16.894-34.113-33.741-51.118-50.664c-3.703-3.685-7.155-7.621-10.647-11.361
		c-1.769,1.389-1.296,2.473-1.283,3.393c0.201,15.114-0.653,30.245,0.431,45.339c0.533,7.424,2.709,9.24,10.009,9.926
		c1.157,0.109,3.056-0.65,2.891,1.74c-0.166,2.393-2.048,1.315-3.127,1.326c-9.497,0.093-18.996,0.086-28.494,0.03
		c-1.024-0.006-2.678,0.799-2.768-1.391c-0.086-2.101,1.516-1.592,2.606-1.705c8.17-0.842,10.075-2.525,10.557-11.01
		c0.41-7.227,0.193-14.49,0.211-21.737c0.024-9.498,0.006-18.997,0.005-28.495c-0.001-5.44-1.781-8.084-6.949-9.839
		c-1.747-0.594-3.648-0.801-5.498-1.006c-1.191-0.132-1.803-0.461-1.827-1.779c-0.027-1.46,0.791-1.571,1.903-1.569
		c7.498,0.015,14.997,0.021,22.495-0.011c1.759-0.007,2.614,1.286,3.658,2.315c17.096,16.825,34.187,33.655,51.264,50.5
		c0.675,0.666,1.19,1.494,1.78,2.247C450.971,90.945,451.327,90.723,451.683,90.501z"/>
	<path fill="#E3595B" d="M23.852,74.171c-0.763,1.684-1.545,3.36-2.287,5.053c-2.347,5.354-1.054,7.639,4.568,9.258
		c1.615,0.465,4.981-0.82,4.677,2.093c-0.309,2.949-3.457,1.34-5.249,1.391c-6.578,0.19-13.166,0.028-19.75-0.001
		c1.001-1.97,2.002-3.94,3.003-5.911c7.272-9.762,12.082-20.931,17.925-31.505C34.1,41.229,41.167,27.746,48.381,14.343
		c0.748-1.391,1.319-2.876,3.495-2.776c1.993,0.091,2.436,1.513,3.112,2.773c11.731,21.89,23.459,43.781,35.135,65.7
		c2.514,4.719,5.483,8.704,11.453,8.892c1.214,0.038,1.809,0.511,1.719,1.833c-0.089,1.296-0.955,1.274-1.833,1.275
		c-11.249,0.01-22.499,0.01-33.748,0.008c-1.036,0-2.016-0.003-1.988-1.522c0.027-1.469,1.01-1.477,2.026-1.574
		c0.867-0.083,1.748-0.13,2.593-0.325c4.302-0.992,5.152-2.643,3.51-6.678c-0.233-0.572-0.412-1.167-0.616-1.751
		c-1.023-4.051-2.014-8.118-5.79-10.675c-0.17-0.151-0.241-0.34-0.215-0.566c0.087-1.098,0.253-2.239-1.324-2.43
		c-0.153-0.119-0.214-0.274-0.184-0.465c-0.823-1.693-2.388-1.016-3.636-1.024c-9.08-0.059-18.166-0.196-27.237,0.096
		c-1.922,0.062-3.419-1.766-5.506-0.527C25.638,66.807,24.613,70.372,23.852,74.171z M47.054,31.394
		c-1.046,1.804-1.754,2.944-2.384,4.125c-3.625,6.802-7.266,13.596-10.817,20.437c-0.741,1.428-2.946,2.571-1.934,4.351
		c1.028,1.808,2.89-0.004,4.391,0.037c7.715,0.21,15.439,0.04,23.159,0.133c2.443,0.029,2.816-0.705,1.697-2.772
		C56.556,49.19,52.007,40.642,47.054,31.394z"/>
	<path fill="#090909" d="M113.132,76.266c0-8.857,0.149-17.718-0.047-26.571c-0.16-7.255-2.458-9.452-9.695-10.163
		c-0.98-0.096-2.035-0.06-2.907-0.432c-0.722-0.308-0.716-1.32-0.513-2.03c0.387-1.355,1.601-0.923,2.525-0.924
		c11.737-0.017,23.473-0.005,35.21-0.002c1.124,0,2.248-0.018,3.371-0.004c0.883,0.011,1.784-0.025,1.869,1.252
		c0.079,1.191-0.297,1.946-1.592,2.012c-0.249,0.013-0.502,0-0.748,0.032c-9.573,1.242-10.905,2.519-11.054,12.339
		c-0.201,13.232-0.113,26.468-0.089,39.703c0.005,2.771-0.315,5.502-0.954,8.156c-2.247,9.326-8.894,15.251-18.644,16.291
		c-4.93,0.526-9.959,0.859-14.757-1.2c-3.292-1.412-5.988-3.358-6.017-7.278c-0.022-2.973,1.831-4.79,4.617-5.635
		c4.099-1.243,8.448-0.127,10.472,2.844c0.827,1.214,1.41,2.632,1.899,4.03c0.668,1.913,2.026,2.305,3.817,2.193
		c1.821-0.114,2.791-1.278,3.019-2.816c0.347-2.331,0.446-4.715,0.46-7.077c0.051-8.24,0.02-16.481,0.02-24.722
		C113.306,76.267,113.219,76.267,113.132,76.266z"/>
	<path fill="#247FB2" d="M127.085,22.938c-1.462,0.517-2.032,3.437-4.361,1.621c-2.364-2.898-5.234-5.254-8.124-7.588
		c0,0,0.017,0.014,0.017,0.014c-3.49-3.784-7.006-7.54-11.231-10.541c0,0,0.002,0.006,0.002,0.007
		c-0.232-0.766-0.726-1.273-1.498-1.501c0,0-0.003-0.003-0.003-0.003c-0.131-0.574-0.471-0.948-1.048-1.096
		c0,0-0.213-0.098-0.216-0.094c-0.193-0.18-0.384-0.364-0.574-0.548c0,0-0.15-0.222-0.151-0.219
		c-0.824-0.908-1.646-1.818-2.469-2.728c0,0,0.004-0.185,0.004-0.185C114.351,0.05,131.27,0.025,148.188,0
		c-0.062,0.129-0.058,0.257,0.012,0.382C141.162,7.9,134.123,15.419,127.085,22.938z M105.012,3.044
		c6.383,6.085,12.033,11.466,17.676,16.854c1.529,1.46,2.369,0.221,3.319-0.786c3.506-3.715,7.091-7.359,10.517-11.146
		c1.337-1.478,3.273-2.579,3.925-4.922C128.794,3.044,117.488,3.044,105.012,3.044z"/>
	<path fill="#1B7FB9" d="M163.936,7.518c0.232,0.199,0.463,0.397,0.695,0.596c0.291,0.747,0.767,1.302,1.572,1.518
		c0,0,0.003,0.002,0.004,0.002c0.251,0.768,0.791,1.227,1.55,1.454c0,0-0.007-0.007-0.007-0.007c0.755,1.25,1.704,2.299,3.047,2.941
		c0,0,0.021,0.016,0.021,0.016c0.812,1.176,1.678,2.297,3.003,2.951c0,0,0.03,0.024,0.03,0.024c2.966,2.992,5.932,5.984,8.898,8.975
		c0,0,0.002,0.001,0.002,0.001c-16.616,0-33.231,0-49.847,0c-0.398-0.576-0.797-1.153-1.195-1.729
		c3.495-2.924,6.99-5.848,10.486-8.772c1.612,0.098,1.617,1.29,1.666,2.451c-1.335,1.551-2.671,3.101-4.287,4.978
		c11.992,0,23.462,0,34.043,0c-3.347-3.666-6.947-7.736-10.695-11.665c-1.967-2.062-4.002-5.1-6.356-5.47
		c-2.505-0.393-3.727,3.716-6.08,5.23c-1.288,0.107-2.217-0.254-2.279-1.747c0.703-1.665,2.799-2.238,3.228-4.118
		c0,0-0.017,0.012-0.018,0.012c0.752-0.256,1.276-0.738,1.502-1.515c0,0-0.004,0.004-0.004,0.003c2.44-3.16,4.629-2.686,6.958,0.254
		C160.981,5.301,162.216,6.727,163.936,7.518z"/>
	<path fill="#0F0F0F" d="M162.677,140.768c6.125-0.003,6.121-0.003,4.91,5.969c-0.272,1.34-0.464,2.697-0.772,4.028
		c-0.683,2.955-1.173,3.172-3.484,0.963c-0.989-0.945-1.264-0.02-1.728,0.22c-1.453,0.752-2.933,1.355-4.567,1.545
		c-6.643,0.768-11.432-1.886-12.361-6.853c-1.343-7.181,3.231-15.369,9.578-17.117c3.598-0.991,7.147-0.829,10.623,0.563
		c2.437,0.976,3.599,2.945,4.131,5.382c0.217,0.996,0.489,2.216-1.063,2.152c-1.055-0.044-2.361,0.86-3.184-0.894
		c-2.627-5.598-8.694-6.496-12.658-1.888c-2.862,3.328-3.732,7.392-2.952,11.573c0.688,3.691,3.856,4.179,7.005,4.079
		c3.606-0.114,6.871-2.647,7.32-5.324c0.225-1.337-0.409-1.472-1.397-1.47c-1.497,0.004-2.994,0.012-4.491-0.01
		c-0.751-0.011-1.666-0.042-1.571-1.078c0.073-0.796,0.175-1.833,1.421-1.835C159.184,140.77,160.93,140.772,162.677,140.768z"/>
	<path fill="#0F0F0F" d="M376.455,138.421c-0.09,9.312-5.65,15.184-14.334,15.135c-6.995-0.039-10.617-3.203-10.586-9.249
		c0.046-9.148,5.839-15.419,14.253-15.43C372.935,128.869,376.516,132.072,376.455,138.421z M355.946,143.873
		c-0.044,4.608,1.974,6.664,6.525,6.647c5.799-0.022,9.576-4.651,9.673-11.855c0.065-4.801-2.93-7.404-7.66-6.659
		C359.158,132.844,356.01,137.219,355.946,143.873z"/>
	<path fill="#0F0F0F" d="M123.974,153.556c-6.982-0.073-10.4-3.191-10.325-9.418c0.111-9.291,5.807-15.373,14.287-15.257
		c6.908,0.095,10.643,3.364,10.64,9.314C138.57,147.535,132.759,153.648,123.974,153.556z M134.145,138.91
		c0.121-5.195-3.046-7.827-8.171-6.79c-5.521,1.117-9.225,7.613-7.999,13.739c0.625,3.121,2.632,4.371,5.488,4.645
		C129.646,151.098,133.97,146.374,134.145,138.91z"/>
	<path fill="#111111" d="M290.402,153.546c-2.563-0.15-6.243-0.436-8.093-4.345c-0.654-1.381-1.551-3.358,0.39-4.189
		c1.822-0.78,3.237-0.271,3.573,2.483c0.359,2.943,3.267,3.034,5.672,2.982c2.43-0.053,4.847-0.505,5.809-3.178
		c0.707-1.963-0.66-3.038-2.222-3.721c-2.165-0.947-4.41-1.711-6.595-2.613c-2.62-1.082-4.462-2.752-4.146-5.914
		c0.301-3.023,2.216-4.662,4.914-5.461c3.438-1.018,6.906-1.005,10.283,0.314c1.567,0.612,2.861,1.707,3.333,3.33
		c0.285,0.98,1.638,2.56-0.304,3.069c-1.118,0.293-2.739,0.958-3.641-1.275c-1.195-2.96-4.771-3.848-7.912-2.504
		c-1.196,0.512-2.164,1.154-2.255,2.658c-0.092,1.513,0.743,2.372,1.951,2.868c1.954,0.803,3.998,1.388,5.952,2.192
		c2.857,1.175,5.47,2.53,5.127,6.4c-0.331,3.735-2.704,5.346-5.905,6.353C294.748,153.493,293.151,153.573,290.402,153.546z"/>
	<path fill="#0F0F0F" d="M197.634,153.568c-3.462-0.027-6.729-0.546-8.972-3.609c-0.966-1.319-0.914-2.85-0.653-4.316
		c0.225-1.261,1.413-0.656,2.193-0.771c1.185-0.175,1.815,0.168,1.792,1.596c-0.042,2.688,1.89,3.631,4.131,3.938
		c2.673,0.366,5.428,0.192,7.196-2.103c1.414-1.835,0.605-3.612-1.444-4.545c-2.371-1.08-4.847-1.928-7.247-2.947
		c-2.518-1.068-4.016-2.771-3.744-5.768c0.264-2.913,1.972-4.549,4.498-5.357c3.53-1.129,7.127-1.182,10.625,0.238
		c1.684,0.684,3.003,1.856,3.491,3.658c0.253,0.934,1.204,2.391-0.443,2.736c-1.095,0.229-2.572,0.802-3.579-0.938
		c-1.945-3.36-4.74-4.199-8.013-2.849c-1.241,0.512-2.224,1.253-2.327,2.64c-0.105,1.414,0.77,2.366,2.004,2.864
		c1.96,0.791,3.992,1.402,5.949,2.197c2.862,1.162,5.563,2.54,5.222,6.344c-0.325,3.613-2.604,5.414-5.875,6.391
		C200.849,153.441,199.264,153.568,197.634,153.568z"/>
	<path fill="#111111" d="M441.527,144.801c0.061-11.546,7.898-18.046,17.745-15.309c3.43,0.953,5.169,3.255,5.528,6.695
		c0.106,1.012,0.147,2.167-1.394,1.99c-1.083-0.124-2.421,0.683-3.052-1.189c-1.893-5.615-7.266-6.871-11.149-2.523
		c-2.976,3.332-3.827,7.479-3.209,11.864c0.342,2.425,2.116,3.647,4.342,4.036c3.003,0.524,5.722-0.167,7.688-2.695
		c0.523-0.672,0.761-1.559,1.239-2.274c0.885-1.323,2.385-0.978,3.408-0.636c1.388,0.464,0.447,1.653,0.1,2.496
		c-2.787,6.781-14.625,8.774-19.46,3.273C441.732,148.73,441.289,146.569,441.527,144.801z"/>
	<path fill="#111111" d="M263.747,153.574c-8.034-0.067-11.495-4.398-9.915-12.414c1.903-9.658,8.846-14.268,17.597-11.631
		c2.995,0.903,4.999,2.794,5.195,6.088c0.058,0.967,0.746,2.472-1.114,2.578c-1.254,0.071-2.459,0.425-3.039-1.665
		c-1.345-4.841-6.189-6.105-10.226-2.972c-3.095,2.402-5.366,9.132-4.309,12.928c0.589,2.116,2.083,3.406,4.181,3.838
		c3.016,0.621,5.715-0.059,7.766-2.492c0.551-0.654,0.944-1.457,1.329-2.232c0.866-1.74,2.542-1.153,3.578-0.791
		c1.186,0.415,0.349,1.751-0.038,2.56C272.543,151.988,268.591,153.595,263.747,153.574z"/>
	<path fill="#111111" d="M332.843,153.558c-8.084-0.004-11.623-4.301-10.085-12.246c1.88-9.71,8.644-14.289,17.482-11.836
		c3.233,0.898,5.093,2.991,5.408,6.344c0.099,1.056,0.427,2.39-1.406,2.392c-1.229,0.002-2.563,0.324-2.743-1.585
		c-0.259-2.739-1.886-4.334-4.556-4.601c-2.88-0.288-5.439,0.595-7.235,3.004c-2.335,3.133-3.167,6.728-2.904,10.575
		c0.175,2.568,1.748,4.138,4.132,4.689c3.139,0.726,5.96-0.012,8.056-2.623c0.536-0.667,0.839-1.518,1.268-2.274
		c0.842-1.481,2.336-0.899,3.322-0.629c1.471,0.403,0.497,1.654,0.177,2.456C342.153,151.256,338.119,153.561,332.843,153.558z"/>
	<path fill="#111111" d="M227.454,129.391c2.743,0,5.487-0.024,8.229,0.016c0.754,0.011,1.968-0.439,1.768,1.085
		c-0.11,0.843-0.318,1.755-1.425,1.914c-0.245,0.035-0.503-0.011-0.745,0.035c-2.219,0.423-5.16-1.207-6.554,0.895
		c-1.205,1.818-1.073,4.535-1.488,6.862c-0.633,3.553-1.261,7.107-1.825,10.671c-0.281,1.779-1.091,2.573-2.999,2.355
		c-2.55-0.291-1.338-2.039-1.165-3.097c0.763-4.664,1.645-9.312,2.623-13.936c0.55-2.601,0.439-4.384-2.975-3.764
		c-0.724,0.132-1.494,0.048-2.24,0.01c-1.02-0.052-2.35,0.433-2.192-1.512c0.137-1.697,1.261-1.546,2.382-1.547
		c2.868-0.002,5.736-0.001,8.604-0.001C227.454,129.382,227.454,129.386,227.454,129.391z"/>
	<path fill="#1C1C1C" d="M402.872,153.222c-8.469,0.028-8.441,0.034-6.746-8.366c0.911-4.516,1.867-9.033,2.492-13.593
		c0.329-2.397,1.831-1.921,3.232-1.888c2.14,0.051,1.042,1.487,0.885,2.398c-0.909,5.279-1.761,10.571-2.866,15.81
		c-0.454,2.149,0.195,2.611,2.164,2.52c2.617-0.122,5.243-0.034,7.865-0.024c0.855,0.003,1.855-0.188,1.766,1.225
		c-0.068,1.087-0.271,1.958-1.675,1.93C407.617,153.188,405.244,153.222,402.872,153.222z"/>
	<path fill="#1C1C1C" d="M425.828,153.231c-8.09,0.019-8.113,0.015-6.764-7.958c0.746-4.409,1.655-8.791,2.348-13.208
		c0.324-2.065,1.097-3.161,3.363-2.727c2.465,0.472,1.037,2.223,0.888,3.199c-0.713,4.661-1.594,9.302-2.596,13.911
		c-0.556,2.556-0.395,4.043,2.846,3.662c2.21-0.26,4.476-0.089,6.715-0.025c0.864,0.025,2.197-0.482,2.113,1.222
		c-0.068,1.358-0.816,1.964-2.192,1.937C430.309,153.199,428.068,153.231,425.828,153.231z"/>
	<path fill="#1C1C1C" d="M97.812,153.255c-2.304-0.229-5.995,1.202-7.489-0.542c-1.491-1.738,0.475-5.133,0.913-7.801
		c0.724-4.418,1.697-8.8,2.284-13.234c0.304-2.301,1.562-2.587,3.322-2.29c2.4,0.406,1.013,2.064,0.836,3.148
		c-0.821,5.032-1.682,10.06-2.697,15.055c-0.423,2.083,0.241,2.625,2.219,2.516c2.486-0.138,4.985-0.075,7.477-0.027
		c0.894,0.017,2.234-0.365,2.081,1.29c-0.113,1.23-0.691,2-2.177,1.915C102.468,153.165,100.344,153.255,97.812,153.255z"/>
	<path fill="#0F0F0F" d="M248.05,131.337c-1.234,6.721-2.529,13.436-3.674,20.176c-0.361,2.126-1.845,1.697-3.106,1.654
		c-2.02-0.069-1.097-1.482-0.927-2.448c1.117-6.366,2.324-12.718,3.365-19.096c0.314-1.925,1.247-2.361,3.018-2.269
		C248.284,129.435,248.222,130.269,248.05,131.337z"/>
	<path fill="#111111" d="M181.288,129.407c1.586-0.154,2.249,0.087,1.853,2.015c-1.319,6.436-2.431,12.917-3.494,19.402
		c-0.341,2.083-1.423,2.677-3.309,2.396c-2.248-0.335-1.047-1.997-0.894-2.897c1.063-6.234,2.37-12.426,3.435-18.66
		C179.155,130.052,179.492,129.028,181.288,129.407z"/>
	<path fill="#D56B6C" d="M23.852,74.171c0.761-3.799,1.786-7.364,5.495-9.566c2.087-1.239,3.584,0.589,5.506,0.527
		c9.071-0.292,18.157-0.155,27.237-0.096c1.248,0.008,2.813-0.668,3.636,1.024c-11.802-0.698-23.615-0.077-35.42-0.338
		c-1.584-0.035-2.078,0.951-2.714,2.058C26.362,69.92,25.594,72.333,23.852,74.171z"/>
	<path fill="#D56B6C" d="M8.814,86.055c-1.001,1.97-2.002,3.94-3.003,5.911c-1.222,0.041-2.443,0.114-3.665,0.111
		c-0.961-0.002-2.032,0.125-2.137-1.34c-0.088-1.229,0.514-1.701,1.647-1.966C4.154,88.185,6.608,87.434,8.814,86.055z"/>
	<path fill="#1C1C1C" d="M384.792,153.277c-1.369-0.122-2.643,0.366-2.579-1.565c0.07-2.127,1.018-2.919,3.031-2.609
		c0.852,0.131,2.25-0.44,1.995,1.303C387.008,151.986,386.947,153.843,384.792,153.277z"/>
	<path fill="#D56B6C" d="M67.448,69.523c3.776,2.557,4.767,6.624,5.79,10.675C70.792,76.919,69.185,73.185,67.448,69.523z"/>
	<path fill="#D56B6C" d="M65.909,66.527c1.576,0.191,1.41,1.332,1.324,2.43C66.442,68.337,66.115,67.465,65.909,66.527z"/>
	<path fill="#247FB2" d="M150.485,11.012c-2.208,2.309-4.417,4.618-6.625,6.926c-0.049-1.161-0.054-2.352-1.666-2.451
		c2.004-2.074,4.008-4.148,6.013-6.222C148.268,10.758,149.197,11.119,150.485,11.012z"/>
</g>
</svg>
